# xmcd
#
# Track frame offsets:
#	150
#	15178
#	29620
#	44591
#	58697
#	72680
#	87207
#	101745
#	114797
#	128641
#	142783
#	157660
#	173407
#	187412
#	201147
#	214844
#	228509
#	243166
#
# Disc length: 3439 seconds
#
# Revision: 0
# Processed by: cddbd v1.5.2PL0 Copyright (c) Steve Scherf et al.
# Submitted via: EasyCDDAExtractor 10.0.2.1
#
DISCID=ef0d6d12
DTITLE=Purshottam Upadhyay - Best of Purshottam Upadhyay
DYEAR=1900
DGENRE=Gujarati
TTITLE0=Ek Vaar Shyam Tame
TTITLE1=Dhenukani Aakhon Maa Joya
TTITLE2=Koi Kahe Tane Kaheva Daiye
TTITLE3=He Jat Lakhwanu Jagdishwarne
TTITLE4=Murli Amthi Nathi Mithi Mithi
TTITLE5=Pattharno Ghadine Besaadiyo
TTITLE6=Nejvane Pandade Podhya Madhav
TTITLE7=Aa Pratham Kadiya
TTITLE8=Gori Ghume Daine Taal
TTITLE9=Chitra Vaishakhna Tap Chhe
TTITLE10=Ram Raakhe
TTITLE11=Tamari Murti Vina Mara Naath Re
TTITLE12=Sharam Ne Ramvu Gamtu Chhanu
TTITLE13=Aa Aje Hashe Vrindavan
TTITLE14=Gayo Lavone Maari Goti Govalya
TTITLE15=Chandan Talavdini Pale
TTITLE16=Tu Kaurav Tun Pandav Manwa
TTITLE17=Gokulyaman Raat Padi
EXTD=
EXTT0=
EXTT1=
EXTT2=
EXTT3=
EXTT4=
EXTT5=
EXTT6=
EXTT7=
EXTT8=
EXTT9=
EXTT10=
EXTT11=
EXTT12=
EXTT13=
EXTT14=
EXTT15=
EXTT16=
EXTT17=
PLAYORDER=
